<mxfile host="Electron" agent="Mozilla/5.0 (Windows NT 10.0; Win64; x64) AppleWebKit/537.36 (KHTML, like Gecko) draw.io/25.0.2 Chrome/128.0.6613.186 Electron/32.2.5 Safari/537.36" version="25.0.2">
  <diagram name="Strona-1" id="ZPURoTI-YACidWWffcV0">
    <mxGraphModel dx="628" dy="1038" grid="1" gridSize="10" guides="1" tooltips="1" connect="1" arrows="1" fold="1" page="1" pageScale="1" pageWidth="827" pageHeight="1169" math="0" shadow="0">
      <root>
        <mxCell id="0" />
        <mxCell id="1" parent="0" />
        <mxCell id="SLQnQ5sDmMqCRToJFb2x-1" value="1. Identification of the mission, vision&amp;nbsp;and goals of the university" style="rounded=1;whiteSpace=wrap;html=1;fontSize=13;sketch=1;curveFitting=1;jiggle=2;" parent="1" vertex="1">
          <mxGeometry x="40" width="160" height="120" as="geometry" />
        </mxCell>
        <mxCell id="lhQeCGYUJxPM1-3rOEWA-21" value="" style="edgeStyle=orthogonalEdgeStyle;rounded=0;orthogonalLoop=1;jettySize=auto;html=1;shape=link;" parent="1" source="YzgCYqUCURwKcO3qDLiV-18" target="YzgCYqUCURwKcO3qDLiV-34" edge="1">
          <mxGeometry relative="1" as="geometry" />
        </mxCell>
        <mxCell id="lhQeCGYUJxPM1-3rOEWA-22" value="" style="edgeStyle=orthogonalEdgeStyle;rounded=0;orthogonalLoop=1;jettySize=auto;html=1;shape=arrow;" parent="1" source="YzgCYqUCURwKcO3qDLiV-18" target="YzgCYqUCURwKcO3qDLiV-24" edge="1">
          <mxGeometry relative="1" as="geometry" />
        </mxCell>
        <mxCell id="YzgCYqUCURwKcO3qDLiV-18" value="6. Selection of areas for improvement" style="rounded=1;whiteSpace=wrap;html=1;sketch=1;curveFitting=1;jiggle=2;" parent="1" vertex="1">
          <mxGeometry x="40" y="1040" width="160" height="120" as="geometry" />
        </mxCell>
        <mxCell id="lhQeCGYUJxPM1-3rOEWA-1" style="edgeStyle=orthogonalEdgeStyle;rounded=0;orthogonalLoop=1;jettySize=auto;html=1;entryX=0;entryY=0.5;entryDx=0;entryDy=0;shape=link;" parent="1" source="iZXRrfKID2UvS0r0eVAW-1" target="iZXRrfKID2UvS0r0eVAW-5" edge="1">
          <mxGeometry relative="1" as="geometry" />
        </mxCell>
        <mxCell id="lhQeCGYUJxPM1-3rOEWA-2" value="" style="edgeStyle=orthogonalEdgeStyle;rounded=0;orthogonalLoop=1;jettySize=auto;html=1;shape=arrow;" parent="1" source="iZXRrfKID2UvS0r0eVAW-1" target="iZXRrfKID2UvS0r0eVAW-3" edge="1">
          <mxGeometry relative="1" as="geometry" />
        </mxCell>
        <mxCell id="iZXRrfKID2UvS0r0eVAW-1" value="2. Identyfication of key stakeholders" style="rounded=1;whiteSpace=wrap;html=1;fontSize=13;sketch=1;curveFitting=1;jiggle=2;" parent="1" vertex="1">
          <mxGeometry x="40" y="160" width="160" height="120" as="geometry" />
        </mxCell>
        <mxCell id="iZXRrfKID2UvS0r0eVAW-9" value="" style="edgeStyle=orthogonalEdgeStyle;rounded=0;orthogonalLoop=1;jettySize=auto;html=1;" parent="1" source="iZXRrfKID2UvS0r0eVAW-2" target="iZXRrfKID2UvS0r0eVAW-8" edge="1">
          <mxGeometry relative="1" as="geometry" />
        </mxCell>
        <mxCell id="lhQeCGYUJxPM1-3rOEWA-11" value="" style="edgeStyle=orthogonalEdgeStyle;rounded=0;orthogonalLoop=1;jettySize=auto;html=1;shape=link;dashed=1;dashPattern=1 1;" parent="1" source="iZXRrfKID2UvS0r0eVAW-2" target="YzgCYqUCURwKcO3qDLiV-1" edge="1">
          <mxGeometry relative="1" as="geometry" />
        </mxCell>
        <mxCell id="iZXRrfKID2UvS0r0eVAW-2" value="5.1 Development &lt;br&gt;of the research tool" style="rounded=1;whiteSpace=wrap;html=1;" parent="1" vertex="1">
          <mxGeometry x="240" y="660" width="120" height="80" as="geometry" />
        </mxCell>
        <mxCell id="lhQeCGYUJxPM1-3rOEWA-6" value="" style="edgeStyle=orthogonalEdgeStyle;rounded=0;orthogonalLoop=1;jettySize=auto;html=1;shape=arrow;" parent="1" source="iZXRrfKID2UvS0r0eVAW-3" target="SLQnQ5sDmMqCRToJFb2x-2" edge="1">
          <mxGeometry relative="1" as="geometry" />
        </mxCell>
        <mxCell id="lhQeCGYUJxPM1-3rOEWA-7" value="" style="edgeStyle=orthogonalEdgeStyle;rounded=0;orthogonalLoop=1;jettySize=auto;html=1;shape=link;" parent="1" source="iZXRrfKID2UvS0r0eVAW-3" target="iZXRrfKID2UvS0r0eVAW-4" edge="1">
          <mxGeometry relative="1" as="geometry" />
        </mxCell>
        <mxCell id="iZXRrfKID2UvS0r0eVAW-3" value="3. Identification of key areas for improvement&amp;nbsp;from the stakeholders’ perspective– qualitative research" style="rounded=1;whiteSpace=wrap;html=1;sketch=1;curveFitting=1;jiggle=2;" parent="1" vertex="1">
          <mxGeometry x="40" y="320" width="160" height="120" as="geometry" />
        </mxCell>
        <mxCell id="iZXRrfKID2UvS0r0eVAW-13" value="" style="edgeStyle=orthogonalEdgeStyle;rounded=0;orthogonalLoop=1;jettySize=auto;html=1;" parent="1" source="iZXRrfKID2UvS0r0eVAW-4" target="iZXRrfKID2UvS0r0eVAW-12" edge="1">
          <mxGeometry relative="1" as="geometry" />
        </mxCell>
        <mxCell id="iZXRrfKID2UvS0r0eVAW-4" value="3.1 Purposeful selection of the group of respondents for qualitative interviews (including leadership)" style="rounded=1;whiteSpace=wrap;html=1;" parent="1" vertex="1">
          <mxGeometry x="240" y="340" width="120" height="80" as="geometry" />
        </mxCell>
        <mxCell id="iZXRrfKID2UvS0r0eVAW-7" value="" style="edgeStyle=orthogonalEdgeStyle;rounded=0;orthogonalLoop=1;jettySize=auto;html=1;" parent="1" source="iZXRrfKID2UvS0r0eVAW-5" target="iZXRrfKID2UvS0r0eVAW-6" edge="1">
          <mxGeometry relative="1" as="geometry" />
        </mxCell>
        <mxCell id="iZXRrfKID2UvS0r0eVAW-5" value="2.1 Analysis of the broad spectrum &lt;br&gt;of potential university stakeholders" style="rounded=1;whiteSpace=wrap;html=1;" parent="1" vertex="1">
          <mxGeometry x="240" y="180" width="120" height="80" as="geometry" />
        </mxCell>
        <mxCell id="iZXRrfKID2UvS0r0eVAW-11" value="" style="edgeStyle=orthogonalEdgeStyle;rounded=0;orthogonalLoop=1;jettySize=auto;html=1;" parent="1" source="iZXRrfKID2UvS0r0eVAW-6" target="iZXRrfKID2UvS0r0eVAW-10" edge="1">
          <mxGeometry relative="1" as="geometry" />
        </mxCell>
        <mxCell id="iZXRrfKID2UvS0r0eVAW-6" value="2.2 Description &lt;br&gt;of each group&#39;s characteristics &lt;br&gt;for their classification" style="whiteSpace=wrap;html=1;rounded=1;" parent="1" vertex="1">
          <mxGeometry x="400" y="180" width="120" height="80" as="geometry" />
        </mxCell>
        <mxCell id="iZXRrfKID2UvS0r0eVAW-19" value="" style="edgeStyle=orthogonalEdgeStyle;rounded=0;orthogonalLoop=1;jettySize=auto;html=1;" parent="1" source="iZXRrfKID2UvS0r0eVAW-8" target="iZXRrfKID2UvS0r0eVAW-18" edge="1">
          <mxGeometry relative="1" as="geometry" />
        </mxCell>
        <mxCell id="iZXRrfKID2UvS0r0eVAW-8" value="5.2 Selection &lt;br&gt;of sampling method for the research group" style="whiteSpace=wrap;html=1;rounded=1;" parent="1" vertex="1">
          <mxGeometry x="240" y="760" width="120" height="80" as="geometry" />
        </mxCell>
        <mxCell id="lhQeCGYUJxPM1-3rOEWA-8" style="edgeStyle=orthogonalEdgeStyle;rounded=0;orthogonalLoop=1;jettySize=auto;html=1;exitX=1;exitY=0.5;exitDx=0;exitDy=0;entryX=0.75;entryY=0;entryDx=0;entryDy=0;dashed=1;strokeWidth=2;" parent="1" source="iZXRrfKID2UvS0r0eVAW-10" target="iZXRrfKID2UvS0r0eVAW-3" edge="1">
          <mxGeometry relative="1" as="geometry">
            <Array as="points">
              <mxPoint x="760" y="220" />
              <mxPoint x="760" y="300" />
              <mxPoint x="160" y="300" />
            </Array>
          </mxGeometry>
        </mxCell>
        <mxCell id="iZXRrfKID2UvS0r0eVAW-10" value="2.3 Selection of the most relevant stakeholder groups considering &lt;br&gt;the organisation&#39;s &lt;br&gt;mission and goals" style="whiteSpace=wrap;html=1;rounded=1;" parent="1" vertex="1">
          <mxGeometry x="560" y="180" width="150" height="80" as="geometry" />
        </mxCell>
        <mxCell id="iZXRrfKID2UvS0r0eVAW-15" value="" style="edgeStyle=orthogonalEdgeStyle;rounded=0;orthogonalLoop=1;jettySize=auto;html=1;" parent="1" source="iZXRrfKID2UvS0r0eVAW-12" target="iZXRrfKID2UvS0r0eVAW-14" edge="1">
          <mxGeometry relative="1" as="geometry" />
        </mxCell>
        <mxCell id="iZXRrfKID2UvS0r0eVAW-12" value="3.2 Development &lt;br&gt;of the interview plan enabling achievement of research objectives" style="rounded=1;whiteSpace=wrap;html=1;" parent="1" vertex="1">
          <mxGeometry x="380" y="340" width="120" height="80" as="geometry" />
        </mxCell>
        <mxCell id="iZXRrfKID2UvS0r0eVAW-17" value="" style="edgeStyle=orthogonalEdgeStyle;rounded=0;orthogonalLoop=1;jettySize=auto;html=1;" parent="1" source="iZXRrfKID2UvS0r0eVAW-14" target="iZXRrfKID2UvS0r0eVAW-16" edge="1">
          <mxGeometry relative="1" as="geometry" />
        </mxCell>
        <mxCell id="iZXRrfKID2UvS0r0eVAW-14" value="3.3 Conducting qualitative research interviews" style="rounded=1;whiteSpace=wrap;html=1;" parent="1" vertex="1">
          <mxGeometry x="520" y="340" width="120" height="80" as="geometry" />
        </mxCell>
        <mxCell id="lhQeCGYUJxPM1-3rOEWA-9" style="edgeStyle=orthogonalEdgeStyle;rounded=0;orthogonalLoop=1;jettySize=auto;html=1;exitX=1;exitY=0.5;exitDx=0;exitDy=0;entryX=0.75;entryY=0;entryDx=0;entryDy=0;dashed=1;strokeWidth=2;" parent="1" source="iZXRrfKID2UvS0r0eVAW-16" target="SLQnQ5sDmMqCRToJFb2x-2" edge="1">
          <mxGeometry relative="1" as="geometry">
            <Array as="points">
              <mxPoint x="800" y="380" />
              <mxPoint x="800" y="460" />
              <mxPoint x="160" y="460" />
            </Array>
          </mxGeometry>
        </mxCell>
        <mxCell id="iZXRrfKID2UvS0r0eVAW-16" value="3.4 Analysis &lt;br&gt;of interview results – areas for improvement" style="rounded=1;whiteSpace=wrap;html=1;" parent="1" vertex="1">
          <mxGeometry x="660" y="340" width="120" height="80" as="geometry" />
        </mxCell>
        <mxCell id="iZXRrfKID2UvS0r0eVAW-21" value="" style="edgeStyle=orthogonalEdgeStyle;rounded=0;orthogonalLoop=1;jettySize=auto;html=1;" parent="1" source="iZXRrfKID2UvS0r0eVAW-18" target="iZXRrfKID2UvS0r0eVAW-20" edge="1">
          <mxGeometry relative="1" as="geometry" />
        </mxCell>
        <mxCell id="iZXRrfKID2UvS0r0eVAW-18" value="5.3 Validation of the measurement tool – pilot study" style="whiteSpace=wrap;html=1;rounded=1;" parent="1" vertex="1">
          <mxGeometry x="380" y="760" width="120" height="80" as="geometry" />
        </mxCell>
        <mxCell id="iZXRrfKID2UvS0r0eVAW-23" value="" style="edgeStyle=orthogonalEdgeStyle;rounded=0;orthogonalLoop=1;jettySize=auto;html=1;" parent="1" source="iZXRrfKID2UvS0r0eVAW-20" target="iZXRrfKID2UvS0r0eVAW-22" edge="1">
          <mxGeometry relative="1" as="geometry" />
        </mxCell>
        <mxCell id="iZXRrfKID2UvS0r0eVAW-20" value="5.4 Implementation &lt;br&gt;of necessary corrections to the measurement tool" style="whiteSpace=wrap;html=1;rounded=1;" parent="1" vertex="1">
          <mxGeometry x="520" y="760" width="120" height="80" as="geometry" />
        </mxCell>
        <mxCell id="lhQeCGYUJxPM1-3rOEWA-14" value="" style="edgeStyle=orthogonalEdgeStyle;rounded=0;orthogonalLoop=1;jettySize=auto;html=1;" parent="1" source="iZXRrfKID2UvS0r0eVAW-22" target="iZXRrfKID2UvS0r0eVAW-26" edge="1">
          <mxGeometry relative="1" as="geometry" />
        </mxCell>
        <mxCell id="iZXRrfKID2UvS0r0eVAW-22" value="5.5 Conducting the main research" style="whiteSpace=wrap;html=1;rounded=1;" parent="1" vertex="1">
          <mxGeometry x="660" y="760" width="120" height="80" as="geometry" />
        </mxCell>
        <mxCell id="lhQeCGYUJxPM1-3rOEWA-15" value="" style="edgeStyle=orthogonalEdgeStyle;rounded=0;orthogonalLoop=1;jettySize=auto;html=1;" parent="1" source="iZXRrfKID2UvS0r0eVAW-26" target="YzgCYqUCURwKcO3qDLiV-7" edge="1">
          <mxGeometry relative="1" as="geometry" />
        </mxCell>
        <mxCell id="lhQeCGYUJxPM1-3rOEWA-20" value="" style="edgeStyle=orthogonalEdgeStyle;rounded=0;orthogonalLoop=1;jettySize=auto;html=1;shape=link;dashed=1;dashPattern=1 1;" parent="1" source="iZXRrfKID2UvS0r0eVAW-26" target="YzgCYqUCURwKcO3qDLiV-9" edge="1">
          <mxGeometry relative="1" as="geometry" />
        </mxCell>
        <mxCell id="iZXRrfKID2UvS0r0eVAW-26" value="5.6 Analysis &lt;br&gt;of research results" style="whiteSpace=wrap;html=1;rounded=1;" parent="1" vertex="1">
          <mxGeometry x="660" y="860" width="120" height="80" as="geometry" />
        </mxCell>
        <mxCell id="lhQeCGYUJxPM1-3rOEWA-5" value="" style="edgeStyle=orthogonalEdgeStyle;rounded=0;orthogonalLoop=1;jettySize=auto;html=1;shape=arrow;" parent="1" source="SLQnQ5sDmMqCRToJFb2x-1" target="iZXRrfKID2UvS0r0eVAW-1" edge="1">
          <mxGeometry relative="1" as="geometry" />
        </mxCell>
        <mxCell id="lhQeCGYUJxPM1-3rOEWA-10" value="" style="edgeStyle=orthogonalEdgeStyle;rounded=0;orthogonalLoop=1;jettySize=auto;html=1;shape=arrow;" parent="1" source="SLQnQ5sDmMqCRToJFb2x-2" target="SLQnQ5sDmMqCRToJFb2x-3" edge="1">
          <mxGeometry relative="1" as="geometry" />
        </mxCell>
        <mxCell id="SLQnQ5sDmMqCRToJFb2x-2" value="4. Analysis of external sources of information potentially correlated with the organization&#39;s actions toward stakeholders" style="rounded=1;whiteSpace=wrap;html=1;sketch=1;curveFitting=1;jiggle=2;" parent="1" vertex="1">
          <mxGeometry x="40" y="480" width="160" height="120" as="geometry" />
        </mxCell>
        <mxCell id="lhQeCGYUJxPM1-3rOEWA-12" value="" style="edgeStyle=orthogonalEdgeStyle;rounded=0;orthogonalLoop=1;jettySize=auto;html=1;shape=link;" parent="1" source="SLQnQ5sDmMqCRToJFb2x-3" target="iZXRrfKID2UvS0r0eVAW-2" edge="1">
          <mxGeometry relative="1" as="geometry" />
        </mxCell>
        <mxCell id="lhQeCGYUJxPM1-3rOEWA-16" style="edgeStyle=orthogonalEdgeStyle;rounded=0;orthogonalLoop=1;jettySize=auto;html=1;entryX=0.5;entryY=0;entryDx=0;entryDy=0;shape=arrow;" parent="1" source="SLQnQ5sDmMqCRToJFb2x-3" target="YzgCYqUCURwKcO3qDLiV-18" edge="1">
          <mxGeometry relative="1" as="geometry" />
        </mxCell>
        <mxCell id="SLQnQ5sDmMqCRToJFb2x-3" value="5. Statistical verification&lt;br&gt;of stakeholders&#39; satisfaction levels and significance &lt;br&gt;of other qualitative research findings" style="rounded=1;whiteSpace=wrap;html=1;sketch=1;curveFitting=1;jiggle=2;" parent="1" vertex="1">
          <mxGeometry x="40" y="640" width="160" height="120" as="geometry" />
        </mxCell>
        <mxCell id="YzgCYqUCURwKcO3qDLiV-2" value="" style="edgeStyle=orthogonalEdgeStyle;rounded=0;orthogonalLoop=1;jettySize=auto;html=1;entryX=0;entryY=0.5;entryDx=0;entryDy=0;dashed=1;dashPattern=1 1;endArrow=classic;endFill=0;" parent="1" source="YzgCYqUCURwKcO3qDLiV-1" target="YzgCYqUCURwKcO3qDLiV-3" edge="1">
          <mxGeometry relative="1" as="geometry">
            <mxPoint x="620" y="629" as="targetPoint" />
          </mxGeometry>
        </mxCell>
        <mxCell id="YzgCYqUCURwKcO3qDLiV-1" value="&lt;i&gt;5.1.1&amp;nbsp;Selection of detailed questions for SSI measurement&lt;/i&gt;" style="rounded=1;whiteSpace=wrap;html=1;dashed=1;dashPattern=1 1;" parent="1" vertex="1">
          <mxGeometry x="390" y="670" width="120" height="60" as="geometry" />
        </mxCell>
        <mxCell id="lhQeCGYUJxPM1-3rOEWA-13" style="edgeStyle=orthogonalEdgeStyle;rounded=0;orthogonalLoop=1;jettySize=auto;html=1;entryX=0.75;entryY=0;entryDx=0;entryDy=0;dashed=1;" parent="1" source="YzgCYqUCURwKcO3qDLiV-3" target="iZXRrfKID2UvS0r0eVAW-8" edge="1">
          <mxGeometry relative="1" as="geometry">
            <Array as="points">
              <mxPoint x="660" y="700" />
              <mxPoint x="660" y="750" />
              <mxPoint x="330" y="750" />
            </Array>
          </mxGeometry>
        </mxCell>
        <mxCell id="YzgCYqUCURwKcO3qDLiV-3" value="&lt;i&gt;5.1.2&amp;nbsp;Development &lt;br&gt;of additional questions&lt;/i&gt;" style="rounded=1;whiteSpace=wrap;html=1;dashed=1;dashPattern=1 1;" parent="1" vertex="1">
          <mxGeometry x="529" y="670" width="120" height="60" as="geometry" />
        </mxCell>
        <mxCell id="lhQeCGYUJxPM1-3rOEWA-17" style="edgeStyle=orthogonalEdgeStyle;rounded=0;orthogonalLoop=1;jettySize=auto;html=1;exitX=0;exitY=0.75;exitDx=0;exitDy=0;dashed=1;entryX=0.75;entryY=0;entryDx=0;entryDy=0;strokeWidth=2;" parent="1" source="YzgCYqUCURwKcO3qDLiV-7" target="YzgCYqUCURwKcO3qDLiV-18" edge="1">
          <mxGeometry relative="1" as="geometry">
            <mxPoint x="150" y="1020" as="targetPoint" />
          </mxGeometry>
        </mxCell>
        <mxCell id="YzgCYqUCURwKcO3qDLiV-7" value="5.7 Development &lt;br&gt;of the research report" style="whiteSpace=wrap;html=1;rounded=1;" parent="1" vertex="1">
          <mxGeometry x="660" y="960" width="120" height="80" as="geometry" />
        </mxCell>
        <mxCell id="YzgCYqUCURwKcO3qDLiV-12" value="" style="edgeStyle=orthogonalEdgeStyle;rounded=0;orthogonalLoop=1;jettySize=auto;html=1;endArrow=classic;endFill=0;" parent="1" source="YzgCYqUCURwKcO3qDLiV-9" target="YzgCYqUCURwKcO3qDLiV-11" edge="1">
          <mxGeometry relative="1" as="geometry" />
        </mxCell>
        <mxCell id="YzgCYqUCURwKcO3qDLiV-9" value="&lt;i&gt;5.6.1&amp;nbsp;Verification &lt;br&gt;of sample representativeness&lt;/i&gt;" style="whiteSpace=wrap;html=1;rounded=1;dashed=1;dashPattern=1 1;" parent="1" vertex="1">
          <mxGeometry x="510" y="870" width="120" height="60" as="geometry" />
        </mxCell>
        <mxCell id="YzgCYqUCURwKcO3qDLiV-14" value="" style="edgeStyle=orthogonalEdgeStyle;rounded=0;orthogonalLoop=1;jettySize=auto;html=1;endArrow=classic;endFill=0;" parent="1" source="YzgCYqUCURwKcO3qDLiV-11" target="YzgCYqUCURwKcO3qDLiV-13" edge="1">
          <mxGeometry relative="1" as="geometry" />
        </mxCell>
        <mxCell id="YzgCYqUCURwKcO3qDLiV-11" value="&lt;i&gt;5.6.2&amp;nbsp;Statistical verification of the significance of obtained results&lt;/i&gt;" style="whiteSpace=wrap;html=1;rounded=1;dashed=1;dashPattern=1 1;" parent="1" vertex="1">
          <mxGeometry x="370" y="870" width="120" height="60" as="geometry" />
        </mxCell>
        <mxCell id="VLXHn2YgdVdNb-UDWVGR-2" style="edgeStyle=orthogonalEdgeStyle;rounded=0;orthogonalLoop=1;jettySize=auto;html=1;exitX=0.5;exitY=1;exitDx=0;exitDy=0;entryX=0.5;entryY=0;entryDx=0;entryDy=0;" parent="1" source="YzgCYqUCURwKcO3qDLiV-13" target="YzgCYqUCURwKcO3qDLiV-15" edge="1">
          <mxGeometry relative="1" as="geometry" />
        </mxCell>
        <mxCell id="YzgCYqUCURwKcO3qDLiV-13" value="&lt;i&gt;5.6.3&amp;nbsp;Calculation &lt;br&gt;of key indicator measures &lt;br&gt;(including SSI)&lt;/i&gt;" style="whiteSpace=wrap;html=1;rounded=1;dashed=1;dashPattern=1 1;" parent="1" vertex="1">
          <mxGeometry x="230" y="870" width="120" height="60" as="geometry" />
        </mxCell>
        <mxCell id="YzgCYqUCURwKcO3qDLiV-17" value="" style="edgeStyle=orthogonalEdgeStyle;rounded=0;orthogonalLoop=1;jettySize=auto;html=1;dashed=1;entryX=0;entryY=0.25;entryDx=0;entryDy=0;" parent="1" source="YzgCYqUCURwKcO3qDLiV-15" target="YzgCYqUCURwKcO3qDLiV-7" edge="1">
          <mxGeometry relative="1" as="geometry" />
        </mxCell>
        <mxCell id="YzgCYqUCURwKcO3qDLiV-15" value="&lt;i&gt;5.6.4&amp;nbsp;Analysis of the relationships between calculated indicator values and other metrics&lt;/i&gt;" style="whiteSpace=wrap;html=1;rounded=1;dashed=1;dashPattern=1 1;" parent="1" vertex="1">
          <mxGeometry x="230" y="950" width="150" height="60" as="geometry" />
        </mxCell>
        <mxCell id="YzgCYqUCURwKcO3qDLiV-36" value="" style="edgeStyle=orthogonalEdgeStyle;rounded=0;orthogonalLoop=1;jettySize=auto;html=1;entryX=0.5;entryY=0;entryDx=0;entryDy=0;" parent="1" source="YzgCYqUCURwKcO3qDLiV-19" target="YzgCYqUCURwKcO3qDLiV-35" edge="1">
          <mxGeometry relative="1" as="geometry">
            <Array as="points">
              <mxPoint x="440" y="1360" />
            </Array>
          </mxGeometry>
        </mxCell>
        <mxCell id="YzgCYqUCURwKcO3qDLiV-19" value="7.3 Determining the initial improvement goal vision" style="rounded=1;whiteSpace=wrap;html=1;" parent="1" vertex="1">
          <mxGeometry x="220" y="1330" width="120" height="60" as="geometry" />
        </mxCell>
        <mxCell id="YzgCYqUCURwKcO3qDLiV-23" value="" style="edgeStyle=orthogonalEdgeStyle;rounded=0;orthogonalLoop=1;jettySize=auto;html=1;entryX=0;entryY=0.5;entryDx=0;entryDy=0;" parent="1" source="YzgCYqUCURwKcO3qDLiV-20" target="YzgCYqUCURwKcO3qDLiV-22" edge="1">
          <mxGeometry relative="1" as="geometry" />
        </mxCell>
        <mxCell id="YzgCYqUCURwKcO3qDLiV-20" value="6.2 Analysis &lt;br&gt;of improvement potential" style="rounded=1;whiteSpace=wrap;html=1;" parent="1" vertex="1">
          <mxGeometry x="400" y="1060" width="120" height="80" as="geometry" />
        </mxCell>
        <mxCell id="lhQeCGYUJxPM1-3rOEWA-37" style="edgeStyle=orthogonalEdgeStyle;rounded=0;orthogonalLoop=1;jettySize=auto;html=1;exitX=1;exitY=0.5;exitDx=0;exitDy=0;entryX=0.75;entryY=0;entryDx=0;entryDy=0;dashed=1;strokeWidth=2;" parent="1" source="YzgCYqUCURwKcO3qDLiV-22" target="YzgCYqUCURwKcO3qDLiV-24" edge="1">
          <mxGeometry relative="1" as="geometry">
            <Array as="points">
              <mxPoint x="700" y="1100" />
              <mxPoint x="700" y="1180" />
              <mxPoint x="160" y="1180" />
            </Array>
          </mxGeometry>
        </mxCell>
        <mxCell id="YzgCYqUCURwKcO3qDLiV-22" value="6.3 Selection &lt;br&gt;of detailed improvement areas" style="rounded=1;whiteSpace=wrap;html=1;" parent="1" vertex="1">
          <mxGeometry x="560" y="1060" width="120" height="80" as="geometry" />
        </mxCell>
        <mxCell id="lhQeCGYUJxPM1-3rOEWA-23" value="" style="edgeStyle=orthogonalEdgeStyle;rounded=0;orthogonalLoop=1;jettySize=auto;html=1;shape=link;" parent="1" source="YzgCYqUCURwKcO3qDLiV-24" target="YzgCYqUCURwKcO3qDLiV-25" edge="1">
          <mxGeometry relative="1" as="geometry" />
        </mxCell>
        <mxCell id="lhQeCGYUJxPM1-3rOEWA-28" style="edgeStyle=orthogonalEdgeStyle;rounded=0;orthogonalLoop=1;jettySize=auto;html=1;exitX=0.5;exitY=1;exitDx=0;exitDy=0;entryX=0.5;entryY=0;entryDx=0;entryDy=0;shape=arrow;" parent="1" source="YzgCYqUCURwKcO3qDLiV-24" target="YzgCYqUCURwKcO3qDLiV-65" edge="1">
          <mxGeometry relative="1" as="geometry" />
        </mxCell>
        <mxCell id="YzgCYqUCURwKcO3qDLiV-24" value="7. Implementation&lt;br&gt;of changes to achieve improvements&lt;br&gt;in selected areas" style="rounded=1;whiteSpace=wrap;html=1;sketch=1;curveFitting=1;jiggle=2;" parent="1" vertex="1">
          <mxGeometry x="40" y="1200" width="160" height="120" as="geometry" />
        </mxCell>
        <mxCell id="YzgCYqUCURwKcO3qDLiV-27" value="" style="edgeStyle=orthogonalEdgeStyle;rounded=0;orthogonalLoop=1;jettySize=auto;html=1;entryX=0;entryY=0.5;entryDx=0;entryDy=0;" parent="1" source="YzgCYqUCURwKcO3qDLiV-25" target="YzgCYqUCURwKcO3qDLiV-28" edge="1">
          <mxGeometry relative="1" as="geometry">
            <mxPoint x="380" y="1460" as="targetPoint" />
          </mxGeometry>
        </mxCell>
        <mxCell id="YzgCYqUCURwKcO3qDLiV-25" value="7.1 Ensuring leadership commitment and support" style="rounded=1;whiteSpace=wrap;html=1;" parent="1" vertex="1">
          <mxGeometry x="240" y="1220" width="120" height="80" as="geometry" />
        </mxCell>
        <mxCell id="YzgCYqUCURwKcO3qDLiV-30" style="edgeStyle=orthogonalEdgeStyle;rounded=0;orthogonalLoop=1;jettySize=auto;html=1;exitX=0;exitY=1;exitDx=0;exitDy=0;entryX=0.5;entryY=0;entryDx=0;entryDy=0;" parent="1" source="YzgCYqUCURwKcO3qDLiV-28" target="YzgCYqUCURwKcO3qDLiV-19" edge="1">
          <mxGeometry relative="1" as="geometry">
            <mxPoint x="278" y="1329" as="targetPoint" />
            <Array as="points">
              <mxPoint x="468" y="1312" />
              <mxPoint x="280" y="1312" />
            </Array>
          </mxGeometry>
        </mxCell>
        <mxCell id="YzgCYqUCURwKcO3qDLiV-32" value="Agile" style="edgeLabel;html=1;align=center;verticalAlign=middle;resizable=0;points=[];" parent="YzgCYqUCURwKcO3qDLiV-30" vertex="1" connectable="0">
          <mxGeometry x="0.0094" y="1" relative="1" as="geometry">
            <mxPoint as="offset" />
          </mxGeometry>
        </mxCell>
        <mxCell id="YzgCYqUCURwKcO3qDLiV-31" style="edgeStyle=orthogonalEdgeStyle;rounded=0;orthogonalLoop=1;jettySize=auto;html=1;exitX=1;exitY=1;exitDx=0;exitDy=0;entryX=0.5;entryY=0;entryDx=0;entryDy=0;" parent="1" source="YzgCYqUCURwKcO3qDLiV-28" target="YzgCYqUCURwKcO3qDLiV-52" edge="1">
          <mxGeometry relative="1" as="geometry">
            <mxPoint x="718" y="1329" as="targetPoint" />
            <Array as="points">
              <mxPoint x="548" y="1312" />
              <mxPoint x="720" y="1312" />
            </Array>
          </mxGeometry>
        </mxCell>
        <mxCell id="YzgCYqUCURwKcO3qDLiV-33" value="Waterfall" style="edgeLabel;html=1;align=center;verticalAlign=middle;resizable=0;points=[];" parent="YzgCYqUCURwKcO3qDLiV-31" vertex="1" connectable="0">
          <mxGeometry x="-0.2279" relative="1" as="geometry">
            <mxPoint as="offset" />
          </mxGeometry>
        </mxCell>
        <mxCell id="YzgCYqUCURwKcO3qDLiV-28" value="7.2 Assigning &lt;br&gt;methodoly for&lt;br&gt;&amp;nbsp;implementation of changes depending on problem &lt;br&gt;characteristics" style="rhombus;whiteSpace=wrap;html=1;" parent="1" vertex="1">
          <mxGeometry x="428" y="1185" width="160" height="150" as="geometry" />
        </mxCell>
        <mxCell id="YzgCYqUCURwKcO3qDLiV-66" value="" style="edgeStyle=orthogonalEdgeStyle;rounded=0;orthogonalLoop=1;jettySize=auto;html=1;entryX=0;entryY=0.5;entryDx=0;entryDy=0;" parent="1" source="YzgCYqUCURwKcO3qDLiV-34" target="YzgCYqUCURwKcO3qDLiV-20" edge="1">
          <mxGeometry relative="1" as="geometry" />
        </mxCell>
        <mxCell id="YzgCYqUCURwKcO3qDLiV-34" value="6.1 Analysis of root causes of challenges identified in the research" style="rounded=1;whiteSpace=wrap;html=1;" parent="1" vertex="1">
          <mxGeometry x="240" y="1060" width="120" height="80" as="geometry" />
        </mxCell>
        <mxCell id="YzgCYqUCURwKcO3qDLiV-38" value="" style="edgeStyle=orthogonalEdgeStyle;rounded=0;orthogonalLoop=1;jettySize=auto;html=1;entryX=0.5;entryY=0;entryDx=0;entryDy=0;" parent="1" source="YzgCYqUCURwKcO3qDLiV-35" target="YzgCYqUCURwKcO3qDLiV-37" edge="1">
          <mxGeometry relative="1" as="geometry" />
        </mxCell>
        <mxCell id="YzgCYqUCURwKcO3qDLiV-35" value="7.4&amp;nbsp;Defining the anticipated implementation stages and sub-goals" style="rounded=1;whiteSpace=wrap;html=1;" parent="1" vertex="1">
          <mxGeometry x="380" y="1379" width="120" height="60" as="geometry" />
        </mxCell>
        <mxCell id="YzgCYqUCURwKcO3qDLiV-40" value="" style="edgeStyle=orthogonalEdgeStyle;rounded=0;orthogonalLoop=1;jettySize=auto;html=1;exitX=1;exitY=0.5;exitDx=0;exitDy=0;entryX=0.5;entryY=0;entryDx=0;entryDy=0;" parent="1" source="YzgCYqUCURwKcO3qDLiV-37" target="YzgCYqUCURwKcO3qDLiV-39" edge="1">
          <mxGeometry relative="1" as="geometry" />
        </mxCell>
        <mxCell id="YzgCYqUCURwKcO3qDLiV-37" value="7.5 Defining the details of cooperation of the improvement team" style="rounded=1;whiteSpace=wrap;html=1;" parent="1" vertex="1">
          <mxGeometry x="220" y="1430" width="120" height="60" as="geometry" />
        </mxCell>
        <mxCell id="YzgCYqUCURwKcO3qDLiV-42" value="" style="edgeStyle=orthogonalEdgeStyle;rounded=0;orthogonalLoop=1;jettySize=auto;html=1;entryX=0.5;entryY=0;entryDx=0;entryDy=0;" parent="1" source="YzgCYqUCURwKcO3qDLiV-39" target="YzgCYqUCURwKcO3qDLiV-41" edge="1">
          <mxGeometry relative="1" as="geometry" />
        </mxCell>
        <mxCell id="YzgCYqUCURwKcO3qDLiV-39" value="7.6 Defining the minimal scope of the first verifiable version of implemented changes" style="rounded=1;whiteSpace=wrap;html=1;" parent="1" vertex="1">
          <mxGeometry x="380" y="1480" width="120" height="80" as="geometry" />
        </mxCell>
        <mxCell id="YzgCYqUCURwKcO3qDLiV-44" value="" style="edgeStyle=orthogonalEdgeStyle;rounded=0;orthogonalLoop=1;jettySize=auto;html=1;entryX=0.5;entryY=0;entryDx=0;entryDy=0;" parent="1" source="YzgCYqUCURwKcO3qDLiV-41" target="YzgCYqUCURwKcO3qDLiV-43" edge="1">
          <mxGeometry relative="1" as="geometry" />
        </mxCell>
        <mxCell id="YzgCYqUCURwKcO3qDLiV-41" value="7.7 Establishing the initial action plan with estimated costs and dependencies" style="rounded=1;whiteSpace=wrap;html=1;" parent="1" vertex="1">
          <mxGeometry x="220" y="1550" width="120" height="70" as="geometry" />
        </mxCell>
        <mxCell id="YzgCYqUCURwKcO3qDLiV-46" value="" style="edgeStyle=orthogonalEdgeStyle;rounded=0;orthogonalLoop=1;jettySize=auto;html=1;entryX=0.5;entryY=0;entryDx=0;entryDy=0;" parent="1" source="YzgCYqUCURwKcO3qDLiV-43" target="YzgCYqUCURwKcO3qDLiV-45" edge="1">
          <mxGeometry relative="1" as="geometry">
            <Array as="points">
              <mxPoint x="280" y="1635" />
            </Array>
          </mxGeometry>
        </mxCell>
        <mxCell id="YzgCYqUCURwKcO3qDLiV-43" value="7.8 Iterative changes implementation and ongoing verification" style="rounded=1;whiteSpace=wrap;html=1;" parent="1" vertex="1">
          <mxGeometry x="380" y="1610" width="120" height="50" as="geometry" />
        </mxCell>
        <mxCell id="YzgCYqUCURwKcO3qDLiV-48" value="" style="edgeStyle=orthogonalEdgeStyle;rounded=0;orthogonalLoop=1;jettySize=auto;html=1;entryX=0.5;entryY=0;entryDx=0;entryDy=0;" parent="1" source="YzgCYqUCURwKcO3qDLiV-45" target="YzgCYqUCURwKcO3qDLiV-47" edge="1">
          <mxGeometry relative="1" as="geometry" />
        </mxCell>
        <mxCell id="YzgCYqUCURwKcO3qDLiV-45" value="7.9&amp;nbsp;Iterative reviews of improvements and enhancements &lt;br&gt;of team work and collaboration" style="rounded=1;whiteSpace=wrap;html=1;" parent="1" vertex="1">
          <mxGeometry x="220" y="1650" width="120" height="80" as="geometry" />
        </mxCell>
        <mxCell id="YzgCYqUCURwKcO3qDLiV-47" value="7.10&amp;nbsp;Verification of the first improvement version and planning the next stages of most valuable changes" style="rounded=1;whiteSpace=wrap;html=1;" parent="1" vertex="1">
          <mxGeometry x="380" y="1710" width="120" height="90" as="geometry" />
        </mxCell>
        <mxCell id="lhQeCGYUJxPM1-3rOEWA-27" value="" style="edgeStyle=orthogonalEdgeStyle;rounded=0;orthogonalLoop=1;jettySize=auto;html=1;exitX=-0.005;exitY=0.644;exitDx=0;exitDy=0;exitPerimeter=0;entryX=0.75;entryY=0;entryDx=0;entryDy=0;dashed=1;strokeWidth=2;" parent="1" source="YzgCYqUCURwKcO3qDLiV-51" target="YzgCYqUCURwKcO3qDLiV-65" edge="1">
          <mxGeometry relative="1" as="geometry" />
        </mxCell>
        <mxCell id="YzgCYqUCURwKcO3qDLiV-51" value="7.11 Iterative implementation &lt;br&gt;of further improvements until the goal is reached or new goals are set" style="ellipse;shape=umlControl;whiteSpace=wrap;html=1;strokeWidth=2;" parent="1" vertex="1">
          <mxGeometry x="210" y="1740" width="140" height="140" as="geometry" />
        </mxCell>
        <mxCell id="YzgCYqUCURwKcO3qDLiV-54" value="" style="edgeStyle=orthogonalEdgeStyle;rounded=0;orthogonalLoop=1;jettySize=auto;html=1;" parent="1" source="YzgCYqUCURwKcO3qDLiV-52" target="YzgCYqUCURwKcO3qDLiV-53" edge="1">
          <mxGeometry relative="1" as="geometry" />
        </mxCell>
        <mxCell id="YzgCYqUCURwKcO3qDLiV-52" value="7.12 Detailed definition of the improvement goal" style="rounded=1;whiteSpace=wrap;html=1;" parent="1" vertex="1">
          <mxGeometry x="660" y="1330" width="120" height="48" as="geometry" />
        </mxCell>
        <mxCell id="YzgCYqUCURwKcO3qDLiV-56" value="" style="edgeStyle=orthogonalEdgeStyle;rounded=0;orthogonalLoop=1;jettySize=auto;html=1;" parent="1" source="YzgCYqUCURwKcO3qDLiV-53" target="YzgCYqUCURwKcO3qDLiV-55" edge="1">
          <mxGeometry relative="1" as="geometry" />
        </mxCell>
        <mxCell id="YzgCYqUCURwKcO3qDLiV-53" value="7.13 Execution of the implementation plan considering available resources" style="rounded=1;whiteSpace=wrap;html=1;" parent="1" vertex="1">
          <mxGeometry x="660" y="1400" width="120" height="60" as="geometry" />
        </mxCell>
        <mxCell id="YzgCYqUCURwKcO3qDLiV-58" value="" style="edgeStyle=orthogonalEdgeStyle;rounded=0;orthogonalLoop=1;jettySize=auto;html=1;" parent="1" source="YzgCYqUCURwKcO3qDLiV-55" target="YzgCYqUCURwKcO3qDLiV-57" edge="1">
          <mxGeometry relative="1" as="geometry" />
        </mxCell>
        <mxCell id="YzgCYqUCURwKcO3qDLiV-55" value="7.14 Verification of the plan and development of a timeline with a resource usage schedule" style="rounded=1;whiteSpace=wrap;html=1;" parent="1" vertex="1">
          <mxGeometry x="660" y="1480" width="120" height="90" as="geometry" />
        </mxCell>
        <mxCell id="YzgCYqUCURwKcO3qDLiV-60" value="" style="edgeStyle=orthogonalEdgeStyle;rounded=0;orthogonalLoop=1;jettySize=auto;html=1;" parent="1" source="YzgCYqUCURwKcO3qDLiV-57" target="YzgCYqUCURwKcO3qDLiV-59" edge="1">
          <mxGeometry relative="1" as="geometry" />
        </mxCell>
        <mxCell id="YzgCYqUCURwKcO3qDLiV-57" value="7.15 Identification &lt;br&gt;of the project’s critical path and key risks for monitoring" style="rounded=1;whiteSpace=wrap;html=1;" parent="1" vertex="1">
          <mxGeometry x="660" y="1600" width="120" height="70" as="geometry" />
        </mxCell>
        <mxCell id="YzgCYqUCURwKcO3qDLiV-62" value="" style="edgeStyle=orthogonalEdgeStyle;rounded=0;orthogonalLoop=1;jettySize=auto;html=1;" parent="1" source="YzgCYqUCURwKcO3qDLiV-59" target="YzgCYqUCURwKcO3qDLiV-61" edge="1">
          <mxGeometry relative="1" as="geometry" />
        </mxCell>
        <mxCell id="YzgCYqUCURwKcO3qDLiV-59" value="7.16 Introduction of potential corrections to the plan" style="rounded=1;whiteSpace=wrap;html=1;" parent="1" vertex="1">
          <mxGeometry x="660" y="1700" width="120" height="50" as="geometry" />
        </mxCell>
        <mxCell id="YzgCYqUCURwKcO3qDLiV-64" value="" style="edgeStyle=orthogonalEdgeStyle;rounded=0;orthogonalLoop=1;jettySize=auto;html=1;" parent="1" source="YzgCYqUCURwKcO3qDLiV-61" target="YzgCYqUCURwKcO3qDLiV-63" edge="1">
          <mxGeometry relative="1" as="geometry" />
        </mxCell>
        <mxCell id="YzgCYqUCURwKcO3qDLiV-61" value="7.17 Plan implementation &lt;br&gt;and monitoring &lt;br&gt;to identify necessary corrections" style="rounded=1;whiteSpace=wrap;html=1;" parent="1" vertex="1">
          <mxGeometry x="660" y="1770" width="120" height="80" as="geometry" />
        </mxCell>
        <mxCell id="lhQeCGYUJxPM1-3rOEWA-24" style="edgeStyle=orthogonalEdgeStyle;rounded=0;orthogonalLoop=1;jettySize=auto;html=1;exitX=0;exitY=0.25;exitDx=0;exitDy=0;entryX=0.75;entryY=0;entryDx=0;entryDy=0;dashed=1;strokeWidth=2;" parent="1" source="YzgCYqUCURwKcO3qDLiV-63" target="YzgCYqUCURwKcO3qDLiV-65" edge="1">
          <mxGeometry relative="1" as="geometry">
            <Array as="points">
              <mxPoint x="660" y="1890" />
              <mxPoint x="160" y="1890" />
            </Array>
          </mxGeometry>
        </mxCell>
        <mxCell id="YzgCYqUCURwKcO3qDLiV-63" value="7.18 Verification &lt;br&gt;of the degree &lt;br&gt;of achievement of the improvement goal" style="rounded=1;whiteSpace=wrap;html=1;" parent="1" vertex="1">
          <mxGeometry x="660" y="1865" width="120" height="60" as="geometry" />
        </mxCell>
        <mxCell id="lhQeCGYUJxPM1-3rOEWA-29" value="" style="edgeStyle=orthogonalEdgeStyle;rounded=0;orthogonalLoop=1;jettySize=auto;html=1;shape=link;" parent="1" source="YzgCYqUCURwKcO3qDLiV-65" target="YzgCYqUCURwKcO3qDLiV-67" edge="1">
          <mxGeometry relative="1" as="geometry" />
        </mxCell>
        <mxCell id="lhQeCGYUJxPM1-3rOEWA-34" value="" style="edgeStyle=orthogonalEdgeStyle;rounded=0;orthogonalLoop=1;jettySize=auto;html=1;shape=arrow;" parent="1" source="YzgCYqUCURwKcO3qDLiV-65" target="YzgCYqUCURwKcO3qDLiV-74" edge="1">
          <mxGeometry relative="1" as="geometry" />
        </mxCell>
        <mxCell id="YzgCYqUCURwKcO3qDLiV-65" value="8. Planning contionous feedback collection" style="rounded=1;whiteSpace=wrap;html=1;sketch=1;curveFitting=1;jiggle=2;" parent="1" vertex="1">
          <mxGeometry x="40" y="1920" width="160" height="120" as="geometry" />
        </mxCell>
        <mxCell id="YzgCYqUCURwKcO3qDLiV-69" value="" style="edgeStyle=orthogonalEdgeStyle;rounded=0;orthogonalLoop=1;jettySize=auto;html=1;" parent="1" source="YzgCYqUCURwKcO3qDLiV-67" target="YzgCYqUCURwKcO3qDLiV-68" edge="1">
          <mxGeometry relative="1" as="geometry" />
        </mxCell>
        <mxCell id="YzgCYqUCURwKcO3qDLiV-67" value="8.1 Defining the details of feedback collection methods" style="rounded=1;whiteSpace=wrap;html=1;" parent="1" vertex="1">
          <mxGeometry x="240" y="1940" width="120" height="80" as="geometry" />
        </mxCell>
        <mxCell id="YzgCYqUCURwKcO3qDLiV-71" value="" style="edgeStyle=orthogonalEdgeStyle;rounded=0;orthogonalLoop=1;jettySize=auto;html=1;" parent="1" source="YzgCYqUCURwKcO3qDLiV-68" target="YzgCYqUCURwKcO3qDLiV-70" edge="1">
          <mxGeometry relative="1" as="geometry" />
        </mxCell>
        <mxCell id="YzgCYqUCURwKcO3qDLiV-68" value="8.2 Planning regular feedback collection cycles" style="rounded=1;whiteSpace=wrap;html=1;" parent="1" vertex="1">
          <mxGeometry x="380" y="1940" width="120" height="80" as="geometry" />
        </mxCell>
        <mxCell id="YzgCYqUCURwKcO3qDLiV-73" value="" style="edgeStyle=orthogonalEdgeStyle;rounded=0;orthogonalLoop=1;jettySize=auto;html=1;" parent="1" source="YzgCYqUCURwKcO3qDLiV-70" target="YzgCYqUCURwKcO3qDLiV-72" edge="1">
          <mxGeometry relative="1" as="geometry" />
        </mxCell>
        <mxCell id="YzgCYqUCURwKcO3qDLiV-70" value="8.3 Automating the feedback collection process where possible" style="rounded=1;whiteSpace=wrap;html=1;" parent="1" vertex="1">
          <mxGeometry x="520" y="1940" width="120" height="80" as="geometry" />
        </mxCell>
        <mxCell id="lhQeCGYUJxPM1-3rOEWA-33" style="edgeStyle=orthogonalEdgeStyle;rounded=0;orthogonalLoop=1;jettySize=auto;html=1;exitX=0.5;exitY=1;exitDx=0;exitDy=0;entryX=0.75;entryY=0;entryDx=0;entryDy=0;dashed=1;strokeWidth=2;" parent="1" source="YzgCYqUCURwKcO3qDLiV-72" target="YzgCYqUCURwKcO3qDLiV-74" edge="1">
          <mxGeometry relative="1" as="geometry">
            <Array as="points">
              <mxPoint x="720" y="2060" />
              <mxPoint x="160" y="2060" />
            </Array>
          </mxGeometry>
        </mxCell>
        <mxCell id="YzgCYqUCURwKcO3qDLiV-72" value="8.4 Engaging stakeholders in the feedback process" style="rounded=1;whiteSpace=wrap;html=1;" parent="1" vertex="1">
          <mxGeometry x="660" y="1940" width="120" height="80" as="geometry" />
        </mxCell>
        <mxCell id="lhQeCGYUJxPM1-3rOEWA-32" value="" style="edgeStyle=orthogonalEdgeStyle;rounded=0;orthogonalLoop=1;jettySize=auto;html=1;shape=link;" parent="1" source="YzgCYqUCURwKcO3qDLiV-74" target="YzgCYqUCURwKcO3qDLiV-75" edge="1">
          <mxGeometry relative="1" as="geometry" />
        </mxCell>
        <mxCell id="vHDiEHz5v03A65j5FyS1-6" style="edgeStyle=orthogonalEdgeStyle;rounded=0;orthogonalLoop=1;jettySize=auto;html=1;entryX=0;entryY=0.5;entryDx=0;entryDy=0;shape=flexArrow;exitX=0.5;exitY=1;exitDx=0;exitDy=0;" parent="1" source="YzgCYqUCURwKcO3qDLiV-74" target="SLQnQ5sDmMqCRToJFb2x-1" edge="1">
          <mxGeometry relative="1" as="geometry">
            <Array as="points">
              <mxPoint x="120" y="2230" />
              <mxPoint x="10" y="2230" />
              <mxPoint x="10" y="60" />
            </Array>
          </mxGeometry>
        </mxCell>
        <mxCell id="YzgCYqUCURwKcO3qDLiV-74" value="9. Continous improvement" style="rounded=1;whiteSpace=wrap;html=1;sketch=1;curveFitting=1;jiggle=2;" parent="1" vertex="1">
          <mxGeometry x="40" y="2080" width="160" height="120" as="geometry" />
        </mxCell>
        <mxCell id="YzgCYqUCURwKcO3qDLiV-77" value="" style="edgeStyle=orthogonalEdgeStyle;rounded=0;orthogonalLoop=1;jettySize=auto;html=1;shape=link;dashed=1;dashPattern=1 1;" parent="1" source="YzgCYqUCURwKcO3qDLiV-75" target="YzgCYqUCURwKcO3qDLiV-76" edge="1">
          <mxGeometry relative="1" as="geometry" />
        </mxCell>
        <mxCell id="lhQeCGYUJxPM1-3rOEWA-30" value="" style="edgeStyle=orthogonalEdgeStyle;rounded=0;orthogonalLoop=1;jettySize=auto;html=1;" parent="1" source="YzgCYqUCURwKcO3qDLiV-75" target="YzgCYqUCURwKcO3qDLiV-80" edge="1">
          <mxGeometry relative="1" as="geometry" />
        </mxCell>
        <mxCell id="YzgCYqUCURwKcO3qDLiV-75" value="9.1 Identification &lt;br&gt;and establishment &lt;br&gt;of reliable indicators of university performance" style="rounded=1;whiteSpace=wrap;html=1;" parent="1" vertex="1">
          <mxGeometry x="240" y="2100" width="120" height="80" as="geometry" />
        </mxCell>
        <mxCell id="YzgCYqUCURwKcO3qDLiV-79" value="" style="edgeStyle=orthogonalEdgeStyle;rounded=0;orthogonalLoop=1;jettySize=auto;html=1;endArrow=classic;endFill=0;" parent="1" source="YzgCYqUCURwKcO3qDLiV-76" target="YzgCYqUCURwKcO3qDLiV-78" edge="1">
          <mxGeometry relative="1" as="geometry" />
        </mxCell>
        <mxCell id="YzgCYqUCURwKcO3qDLiV-76" value="&lt;i&gt;9.1.1&amp;nbsp;Development &lt;br&gt;of a set of indicators based on available literature and internal research that reflects organisational specifics&lt;/i&gt;" style="whiteSpace=wrap;html=1;rounded=1;dashed=1;dashPattern=1 1;" parent="1" vertex="1">
          <mxGeometry x="390" y="2085" width="120" height="110" as="geometry" />
        </mxCell>
        <mxCell id="vHDiEHz5v03A65j5FyS1-1" style="edgeStyle=orthogonalEdgeStyle;rounded=0;orthogonalLoop=1;jettySize=auto;html=1;exitX=1;exitY=0.5;exitDx=0;exitDy=0;entryX=0.75;entryY=0;entryDx=0;entryDy=0;dashed=1;" parent="1" source="YzgCYqUCURwKcO3qDLiV-78" target="YzgCYqUCURwKcO3qDLiV-80" edge="1">
          <mxGeometry relative="1" as="geometry">
            <Array as="points">
              <mxPoint x="660" y="2140" />
              <mxPoint x="660" y="2210" />
              <mxPoint x="330" y="2210" />
            </Array>
          </mxGeometry>
        </mxCell>
        <mxCell id="YzgCYqUCURwKcO3qDLiV-78" value="&lt;i&gt;9.1.2&amp;nbsp;Commitment by top management to long-term monitoring of selected key indicators&lt;/i&gt;" style="whiteSpace=wrap;html=1;rounded=1;dashed=1;dashPattern=1 1;" parent="1" vertex="1">
          <mxGeometry x="530" y="2090" width="120" height="100" as="geometry" />
        </mxCell>
        <mxCell id="YzgCYqUCURwKcO3qDLiV-83" value="" style="edgeStyle=orthogonalEdgeStyle;rounded=0;orthogonalLoop=1;jettySize=auto;html=1;shape=link;dashed=1;dashPattern=1 1;" parent="1" source="YzgCYqUCURwKcO3qDLiV-80" target="YzgCYqUCURwKcO3qDLiV-82" edge="1">
          <mxGeometry relative="1" as="geometry" />
        </mxCell>
        <mxCell id="lhQeCGYUJxPM1-3rOEWA-31" value="" style="edgeStyle=orthogonalEdgeStyle;rounded=0;orthogonalLoop=1;jettySize=auto;html=1;" parent="1" source="YzgCYqUCURwKcO3qDLiV-80" target="YzgCYqUCURwKcO3qDLiV-86" edge="1">
          <mxGeometry relative="1" as="geometry" />
        </mxCell>
        <mxCell id="YzgCYqUCURwKcO3qDLiV-80" value="9.2 Establishing cycles &lt;br&gt;of measurement &lt;br&gt;and verification &lt;br&gt;of university performance" style="rounded=1;whiteSpace=wrap;html=1;" parent="1" vertex="1">
          <mxGeometry x="240" y="2225" width="120" height="90" as="geometry" />
        </mxCell>
        <mxCell id="YzgCYqUCURwKcO3qDLiV-85" value="" style="edgeStyle=orthogonalEdgeStyle;rounded=0;orthogonalLoop=1;jettySize=auto;html=1;endArrow=classic;endFill=0;" parent="1" source="YzgCYqUCURwKcO3qDLiV-82" target="YzgCYqUCURwKcO3qDLiV-84" edge="1">
          <mxGeometry relative="1" as="geometry" />
        </mxCell>
        <mxCell id="YzgCYqUCURwKcO3qDLiV-82" value="&lt;i&gt;9.2.1&amp;nbsp;Determining the required length of measurement cycles&lt;/i&gt;" style="rounded=1;whiteSpace=wrap;html=1;dashed=1;dashPattern=1 1;" parent="1" vertex="1">
          <mxGeometry x="390" y="2235" width="120" height="70" as="geometry" />
        </mxCell>
        <mxCell id="vHDiEHz5v03A65j5FyS1-2" style="edgeStyle=orthogonalEdgeStyle;rounded=0;orthogonalLoop=1;jettySize=auto;html=1;exitX=1;exitY=0.5;exitDx=0;exitDy=0;entryX=0.75;entryY=0;entryDx=0;entryDy=0;dashed=1;" parent="1" source="YzgCYqUCURwKcO3qDLiV-84" target="YzgCYqUCURwKcO3qDLiV-86" edge="1">
          <mxGeometry relative="1" as="geometry">
            <Array as="points">
              <mxPoint x="660" y="2270" />
              <mxPoint x="660" y="2320" />
              <mxPoint x="330" y="2320" />
            </Array>
          </mxGeometry>
        </mxCell>
        <mxCell id="YzgCYqUCURwKcO3qDLiV-84" value="&lt;i&gt;9.2.2&amp;nbsp;Establishment of a set of methods for measuring and verifying results&lt;/i&gt;" style="rounded=1;whiteSpace=wrap;html=1;dashed=1;dashPattern=1 1;" parent="1" vertex="1">
          <mxGeometry x="530" y="2235" width="120" height="70" as="geometry" />
        </mxCell>
        <mxCell id="YzgCYqUCURwKcO3qDLiV-89" value="" style="edgeStyle=orthogonalEdgeStyle;rounded=0;orthogonalLoop=1;jettySize=auto;html=1;" parent="1" source="YzgCYqUCURwKcO3qDLiV-86" target="YzgCYqUCURwKcO3qDLiV-88" edge="1">
          <mxGeometry relative="1" as="geometry" />
        </mxCell>
        <mxCell id="YzgCYqUCURwKcO3qDLiV-86" value="9.3 Establishing cycles for reviewing measurement findings and feedback gathering" style="rounded=1;whiteSpace=wrap;html=1;" parent="1" vertex="1">
          <mxGeometry x="240" y="2340" width="120" height="80" as="geometry" />
        </mxCell>
        <mxCell id="YzgCYqUCURwKcO3qDLiV-91" value="" style="edgeStyle=orthogonalEdgeStyle;rounded=0;orthogonalLoop=1;jettySize=auto;html=1;" parent="1" source="YzgCYqUCURwKcO3qDLiV-88" target="YzgCYqUCURwKcO3qDLiV-90" edge="1">
          <mxGeometry relative="1" as="geometry" />
        </mxCell>
        <mxCell id="YzgCYqUCURwKcO3qDLiV-88" value="9.4 Establishing cycles of regular analysis &lt;br&gt;of improvement areas" style="rounded=1;whiteSpace=wrap;html=1;" parent="1" vertex="1">
          <mxGeometry x="400" y="2340" width="120" height="80" as="geometry" />
        </mxCell>
        <mxCell id="YzgCYqUCURwKcO3qDLiV-93" value="" style="edgeStyle=orthogonalEdgeStyle;rounded=0;orthogonalLoop=1;jettySize=auto;html=1;" parent="1" source="YzgCYqUCURwKcO3qDLiV-90" target="YzgCYqUCURwKcO3qDLiV-92" edge="1">
          <mxGeometry relative="1" as="geometry" />
        </mxCell>
        <mxCell id="YzgCYqUCURwKcO3qDLiV-90" value="9.5 Planning methods to celebrate success within the organisation" style="rounded=1;whiteSpace=wrap;html=1;" parent="1" vertex="1">
          <mxGeometry x="560" y="2340" width="120" height="80" as="geometry" />
        </mxCell>
        <mxCell id="YzgCYqUCURwKcO3qDLiV-95" value="" style="edgeStyle=orthogonalEdgeStyle;rounded=0;orthogonalLoop=1;jettySize=auto;html=1;" parent="1" source="YzgCYqUCURwKcO3qDLiV-92" target="YzgCYqUCURwKcO3qDLiV-94" edge="1">
          <mxGeometry relative="1" as="geometry" />
        </mxCell>
        <mxCell id="YzgCYqUCURwKcO3qDLiV-92" value="9.6 Establishing a transparent knowledge management system" style="rounded=1;whiteSpace=wrap;html=1;" parent="1" vertex="1">
          <mxGeometry x="560" y="2440" width="120" height="80" as="geometry" />
        </mxCell>
        <mxCell id="vHDiEHz5v03A65j5FyS1-4" value="" style="edgeStyle=orthogonalEdgeStyle;rounded=0;orthogonalLoop=1;jettySize=auto;html=1;" parent="1" source="YzgCYqUCURwKcO3qDLiV-94" target="vHDiEHz5v03A65j5FyS1-3" edge="1">
          <mxGeometry relative="1" as="geometry" />
        </mxCell>
        <mxCell id="YzgCYqUCURwKcO3qDLiV-94" value="9.7 Establishing rules for regular&amp;nbsp;reviewing improvement processes" style="rounded=1;whiteSpace=wrap;html=1;" parent="1" vertex="1">
          <mxGeometry x="400" y="2440" width="120" height="80" as="geometry" />
        </mxCell>
        <mxCell id="vHDiEHz5v03A65j5FyS1-5" style="edgeStyle=orthogonalEdgeStyle;rounded=0;orthogonalLoop=1;jettySize=auto;html=1;exitX=0;exitY=0.5;exitDx=0;exitDy=0;entryX=0.75;entryY=1;entryDx=0;entryDy=0;dashed=1;strokeWidth=2;" parent="1" source="vHDiEHz5v03A65j5FyS1-3" target="YzgCYqUCURwKcO3qDLiV-74" edge="1">
          <mxGeometry relative="1" as="geometry" />
        </mxCell>
        <mxCell id="vHDiEHz5v03A65j5FyS1-3" value="9.8 Regular implementation &lt;br&gt;of enhancements &lt;br&gt;in the continuous improvement process" style="rounded=1;whiteSpace=wrap;html=1;" parent="1" vertex="1">
          <mxGeometry x="240" y="2440" width="120" height="80" as="geometry" />
        </mxCell>
        <mxCell id="vHDiEHz5v03A65j5FyS1-7" style="edgeStyle=orthogonalEdgeStyle;rounded=0;orthogonalLoop=1;jettySize=auto;html=1;exitX=0.5;exitY=1;exitDx=0;exitDy=0;entryX=0.992;entryY=0.648;entryDx=0;entryDy=0;entryPerimeter=0;" parent="1" source="YzgCYqUCURwKcO3qDLiV-47" target="YzgCYqUCURwKcO3qDLiV-51" edge="1">
          <mxGeometry relative="1" as="geometry" />
        </mxCell>
      </root>
    </mxGraphModel>
  </diagram>
</mxfile>
